<svg width="377" height="304" viewBox="0 0 377 304" fill="none" xmlns="http://www.w3.org/2000/svg">
<g clip-path="url(#clip0)">
<g opacity="0.5">
<path opacity="0.5" d="M357.116 75.542H305.487V55.8133C305.487 50.3328 303.307 45.0768 299.426 41.2016C295.545 37.3263 290.282 35.1492 284.794 35.1492H48.3998C43.4211 35.1492 38.6463 37.1243 35.1258 40.64C31.6053 44.1557 29.6275 48.924 29.6275 53.8959V75.5536H21.8543C16.0636 75.5516 10.509 77.8455 6.41107 81.9313C2.31315 86.0171 0.00721097 91.5605 0 97.3433V195.152C0.00419851 200.652 2.08885 205.948 5.8365 209.978C9.58415 214.009 14.7181 216.477 20.2103 216.888V239.011H42.2784V216.954H70.0676V239.198H92.1357V216.954H290.741V239.198H312.809V216.954H331.2V238.992H353.292V216.954H357.268C359.859 216.954 362.425 216.445 364.819 215.455C367.213 214.465 369.388 213.014 371.22 211.185C373.053 209.355 374.506 207.183 375.498 204.793C376.49 202.402 377 199.84 377 197.252V95.4027C377.001 92.7947 376.487 90.2122 375.488 87.8026C374.489 85.393 373.024 83.2036 371.178 81.3593C369.331 79.515 367.139 78.052 364.726 77.0539C362.314 76.0557 359.728 75.542 357.116 75.542ZM301.6 161.858V178.385H219.329C220.22 176.792 220.687 174.997 220.685 173.173V161.858H301.6Z" fill="url(#paint0_linear)"/>
</g>
<path d="M47.7235 208.686H26.4755V235.211H47.7235V208.686Z" fill="#6C63FF"/>
<path d="M308.223 208.884H286.975V235.409H308.223V208.884Z" fill="#6C63FF"/>
<path d="M347.178 208.686H325.93V235.211H347.178V208.686Z" fill="#6C63FF"/>
<path d="M95.7308 208.884H74.4828V235.409H95.7308V208.884Z" fill="#6C63FF"/>
<path opacity="0.3" d="M47.7235 208.686H26.4755V235.211H47.7235V208.686Z" fill="black"/>
<path opacity="0.3" d="M308.223 208.884H286.975V235.409H308.223V208.884Z" fill="black"/>
<path opacity="0.3" d="M347.178 208.686H325.93V235.211H347.178V208.686Z" fill="black"/>
<path opacity="0.3" d="M95.7308 208.884H74.4828V235.409H95.7308V208.884Z" fill="black"/>
<path d="M297.402 77.8281H350.859C355.936 77.8281 360.806 79.8424 364.397 83.428C367.987 87.0136 370.004 91.8766 370.004 96.9474V195.024C370.004 200.055 368.003 204.879 364.441 208.437C360.879 211.994 356.048 213.992 351.01 213.992H297.402V77.8281Z" fill="#6C63FF"/>
<path opacity="0.3" d="M297.402 77.8281H350.859C355.936 77.8281 360.806 79.8424 364.397 83.428C367.987 87.0136 370.004 91.8766 370.004 96.9474V195.024C370.004 200.055 368.003 204.879 364.441 208.437C360.879 211.994 356.048 213.992 351.01 213.992H297.402V77.8281Z" fill="black"/>
<path d="M53.6001 38.9257H155.938V160.942H35.5235V56.9738C35.5245 52.1867 37.4295 47.5962 40.8194 44.2116C44.2093 40.827 48.8066 38.9257 53.6001 38.9257Z" fill="#6C63FF"/>
<path opacity="0.3" d="M54.1831 38.9257H155.938V160.942H35.5235V57.556C35.5235 55.1091 36.0062 52.6861 36.944 50.4256C37.8817 48.165 39.2563 46.111 40.989 44.381C42.7218 42.6509 44.7788 41.2787 47.0427 40.3427C49.3065 39.4067 51.7328 38.9251 54.1831 38.9257Z" fill="black"/>
<path d="M81.3076 38.9257H180.532V160.942H60.1179V60.0827C60.1179 54.4715 62.35 49.0901 66.3231 45.1224C70.2962 41.1547 75.6849 38.9257 81.3037 38.9257H81.3076Z" fill="#6C63FF"/>
<path d="M179.949 38.9257H281.215C286.5 38.9257 291.568 41.0222 295.305 44.7541C299.042 48.486 301.141 53.5475 301.141 58.8251V160.942H179.949V38.9257Z" fill="#6C63FF"/>
<path d="M331.049 77.8281H350.87C355.946 77.8312 360.813 79.8469 364.401 83.4321C367.989 87.0173 370.004 91.8787 370.004 96.9474V195.024C370.004 200.055 368.003 204.879 364.441 208.437C360.879 211.994 356.048 213.992 351.01 213.992H331.049V77.8281Z" fill="#6C63FF"/>
<path d="M331.045 176.856H86.6789V213.992H331.045V176.856Z" fill="#6C63FF"/>
<path d="M142.829 82.6152L116.128 90.3873C104.371 93.8094 97.6183 106.101 101.045 117.842L109.89 148.147C113.317 159.888 125.626 166.632 137.382 163.209L164.084 155.437C175.84 152.015 182.593 139.723 179.166 127.983L170.321 97.6772C166.894 85.9366 154.586 79.1931 142.829 82.6152Z" fill="url(#paint1_linear)"/>
<path d="M141.358 86.2353L116.459 93.4828C105.496 96.674 99.1986 108.136 102.394 119.085L110.642 147.344C113.838 158.293 125.316 164.581 136.279 161.39L161.178 154.143C172.141 150.951 178.438 139.489 175.243 128.541L166.995 100.281C163.799 89.3326 152.321 83.0441 141.358 86.2353Z" fill="#F55F44"/>
<path opacity="0.1" d="M141.358 86.2353L116.459 93.4828C105.496 96.674 99.1986 108.136 102.394 119.085L110.642 147.344C113.838 158.293 125.316 164.581 136.279 161.39L161.178 154.143C172.141 150.951 178.438 139.489 175.243 128.541L166.995 100.281C163.799 89.3326 152.321 83.0441 141.358 86.2353Z" fill="black"/>
<path d="M142.643 85.3336L117.744 92.5812C106.78 95.7723 100.483 107.235 103.679 118.183L111.927 146.443C115.123 157.391 126.601 163.68 137.564 160.488L162.463 153.241C173.426 150.05 179.723 138.587 176.528 127.639L168.279 99.3792C165.084 88.4309 153.606 82.1425 142.643 85.3336Z" fill="#F55F44"/>
<path d="M137.317 109.731C139.717 108.046 140.295 104.736 138.606 102.339C136.918 99.9424 133.604 99.366 131.204 101.052C128.804 102.738 128.227 106.047 129.915 108.444C131.603 110.841 134.917 111.417 137.317 109.731Z" fill="url(#paint2_linear)"/>
<path d="M162.736 124.305C165.136 122.619 165.714 119.31 164.026 116.913C162.337 114.516 159.023 113.94 156.623 115.625C154.223 117.311 153.646 120.621 155.334 123.018C157.022 125.414 160.336 125.991 162.736 124.305Z" fill="url(#paint3_linear)"/>
<path d="M123.309 139.021C125.709 137.336 126.287 134.026 124.599 131.629C122.91 129.232 119.596 128.656 117.196 130.342C114.796 132.028 114.219 135.337 115.907 137.734C117.595 140.131 120.909 140.707 123.309 139.021Z" fill="url(#paint4_linear)"/>
<path d="M147.277 154.615C149.677 152.93 150.254 149.62 148.566 147.223C146.878 144.826 143.564 144.25 141.164 145.936C138.764 147.621 138.187 150.931 139.875 153.328C141.563 155.725 144.877 156.301 147.277 154.615Z" fill="url(#paint5_linear)"/>
<path d="M136.298 108.284C137.897 107.16 138.282 104.955 137.157 103.357C136.032 101.76 133.823 101.376 132.224 102.499C130.624 103.623 130.24 105.828 131.365 107.426C132.49 109.023 134.698 109.407 136.298 108.284Z" fill="#F99F8F"/>
<path d="M161.717 122.857C163.316 121.734 163.701 119.528 162.576 117.931C161.451 116.334 159.242 115.95 157.643 117.073C156.043 118.196 155.659 120.402 156.784 121.999C157.909 123.597 160.117 123.981 161.717 122.857Z" fill="#F99F8F"/>
<path d="M122.29 137.574C123.889 136.45 124.274 134.245 123.149 132.647C122.024 131.05 119.815 130.666 118.216 131.789C116.616 132.913 116.232 135.118 117.357 136.716C118.482 138.313 120.69 138.697 122.29 137.574Z" fill="#F99F8F"/>
<path d="M146.258 153.168C147.857 152.044 148.242 149.839 147.117 148.241C145.992 146.644 143.783 146.26 142.184 147.383C140.584 148.507 140.2 150.712 141.325 152.31C142.45 153.907 144.658 154.291 146.258 153.168Z" fill="#F99F8F"/>
<path d="M28.034 77.8281H106.155V213.992H28.034C22.455 213.992 17.1045 211.779 13.1592 207.84C9.21388 203.901 6.99691 198.558 6.99588 192.987V98.8376C6.99588 93.2655 9.21239 87.9217 13.1578 83.9816C17.1032 80.0416 22.4544 77.8281 28.034 77.8281Z" fill="#6C63FF"/>
<path opacity="0.3" d="M28.1817 77.8281H86.5545C89.1303 77.8281 91.6808 78.335 94.0603 79.3198C96.4397 80.3046 98.6016 81.7481 100.422 83.5676C102.243 85.3872 103.686 87.5472 104.671 89.9242C105.655 92.3013 106.161 94.8487 106.159 97.4209V194.415C106.159 199.607 104.093 204.587 100.417 208.258C96.7402 211.93 91.7538 213.992 86.5545 213.992H28.1817C22.5629 213.992 17.1742 211.763 13.2011 207.795C9.22795 203.828 6.99588 198.446 6.99588 192.835V98.9734C6.99897 93.3643 9.23241 87.9859 13.2052 84.0207C17.178 80.0555 22.5649 77.8281 28.1817 77.8281Z" fill="black"/>
<path opacity="0.1" d="M67.3975 77.8281H101.518C103.27 77.8281 104.951 78.5232 106.19 79.7606C107.429 80.998 108.125 82.6763 108.125 84.4263V207.394C108.125 209.144 107.429 210.822 106.19 212.06C104.951 213.297 103.27 213.992 101.518 213.992H67.3975V77.8281Z" fill="black"/>
<path d="M65.4309 77.8281H99.5513C101.304 77.8281 102.984 78.5232 104.223 79.7606C105.462 80.998 106.159 82.6763 106.159 84.4263V207.394C106.159 209.144 105.462 210.822 104.223 212.06C102.984 213.297 101.304 213.992 99.5513 213.992H65.4309V77.8281Z" fill="#6C63FF"/>
<path d="M219.488 148.565H97.3049V182.165H219.488V148.565Z" fill="#6C63FF"/>
<path d="M341.869 148.759H219.686V182.36H341.869V148.759Z" fill="#6C63FF"/>
<path opacity="0.15" d="M209.15 148.565H107.643C101.933 148.565 97.3049 153.187 97.3049 158.889V171.841C97.3049 177.543 101.933 182.165 107.643 182.165H209.15C214.859 182.165 219.488 177.543 219.488 171.841V158.889C219.488 153.187 214.859 148.565 209.15 148.565Z" fill="white"/>
<path d="M233.752 86.7667C237.663 86.7667 240.833 83.6006 240.833 79.695C240.833 75.7894 237.663 72.6232 233.752 72.6232C229.841 72.6232 226.67 75.7894 226.67 79.695C226.67 83.6006 229.841 86.7667 233.752 86.7667Z" fill="#6C63FF"/>
<path opacity="0.3" d="M233.752 86.7667C237.663 86.7667 240.833 83.6006 240.833 79.695C240.833 75.7894 237.663 72.6232 233.752 72.6232C229.841 72.6232 226.67 75.7894 226.67 79.695C226.67 83.6006 229.841 86.7667 233.752 86.7667Z" fill="black"/>
<path d="M123.967 86.7667C127.878 86.7667 131.048 83.6006 131.048 79.695C131.048 75.7894 127.878 72.6232 123.967 72.6232C120.056 72.6232 116.886 75.7894 116.886 79.695C116.886 83.6006 120.056 86.7667 123.967 86.7667Z" fill="#6C63FF"/>
<path opacity="0.3" d="M123.967 86.7667C127.878 86.7667 131.048 83.6006 131.048 79.695C131.048 75.7894 127.878 72.6232 123.967 72.6232C120.056 72.6232 116.886 75.7894 116.886 79.695C116.886 83.6006 120.056 86.7667 123.967 86.7667Z" fill="black"/>
<path d="M120.422 42.3606C121.401 42.3606 122.195 41.1738 122.195 39.7097C122.195 38.2456 121.401 37.0588 120.422 37.0588C119.444 37.0588 118.65 38.2456 118.65 39.7097C118.65 41.1738 119.444 42.3606 120.422 42.3606Z" fill="#FDA57D"/>
<path opacity="0.15" d="M331.531 148.759H230.024C224.315 148.759 219.686 153.381 219.686 159.083V172.035C219.686 177.737 224.315 182.36 230.024 182.36H331.531C337.24 182.36 341.869 177.737 341.869 172.035V159.083C341.869 153.381 337.24 148.759 331.531 148.759Z" fill="white"/>
<g opacity="0.5">
<path opacity="0.5" d="M261.35 80.7352C260.538 76.2755 259.706 71.7655 257.852 67.6163C255.822 63.0584 252.641 59.105 248.622 56.1432C248.025 55.6926 247.285 55.4721 246.539 55.5222C245.373 55.6231 245.015 56.3372 244.832 57.0747C244.809 57.164 244.79 57.2493 244.774 57.3386C244.315 59.6014 244.622 61.8371 245.287 64.0416C246.115 66.7935 247.502 69.4755 248.657 72.1381C250.736 76.9091 252.115 81.9552 252.749 87.1199C252.835 87.803 252.901 88.5056 252.916 89.2081C252.928 89.6262 252.917 90.0447 252.885 90.4617C252.833 91.2797 252.647 92.0835 252.333 92.841C252.279 92.9652 252.221 93.0946 252.159 93.2291C252.096 93.3637 252.029 93.4827 251.956 93.5862C251.249 94.7506 250.145 95.5812 249.065 96.4002C247.984 97.2191 246.76 98.0924 245.47 98.5349H245.513C244.912 98.7513 244.277 98.8552 243.639 98.8415C241.645 98.7794 239.519 97.1764 237.514 97.5529L237.288 97.6034C235.236 98.1584 233.662 101.38 233.647 103.425C233.647 103.588 233.647 103.746 233.647 103.899C233.647 103.953 233.647 104.008 233.666 104.062C233.686 104.116 233.689 104.268 233.705 104.365C233.721 104.462 233.728 104.485 233.744 104.543C233.759 104.601 233.779 104.718 233.802 104.803C233.825 104.889 233.837 104.924 233.857 104.982C233.876 105.04 233.907 105.141 233.934 105.219C233.962 105.296 233.981 105.335 234.004 105.389C234.028 105.444 234.066 105.537 234.101 105.607L234.187 105.77C234.226 105.836 234.261 105.905 234.304 105.971L234.405 106.127L234.537 106.313L234.649 106.457L234.801 106.627L234.925 106.759L235.093 106.919L235.229 107.039L235.411 107.186L235.555 107.299L235.753 107.435L235.901 107.536L236.119 107.664L236.27 107.749L236.515 107.869L236.659 107.939C236.775 107.994 236.896 108.044 237.016 108.091L237.191 108.157L237.471 108.258L237.673 108.32L237.903 108.39L238.128 108.448L238.346 108.502L238.587 108.553L238.796 108.595L239.049 108.638L239.251 108.669L239.512 108.704L239.706 108.727L239.978 108.75H240.168H240.448H240.627H240.919H241.529H241.847H241.96L242.302 108.723H242.368C243.338 108.639 244.293 108.429 245.209 108.098C248.113 107 250.577 104.993 252.858 102.886C257.382 98.7134 261.657 93.5357 262.019 87.3955C262.159 85.1793 261.751 82.9436 261.35 80.7352Z" fill="url(#paint6_linear)"/>
</g>
<path opacity="0.1" d="M242.217 79.2603H205.578V89.8524H242.217V79.2603Z" fill="black"/>
<path d="M242.217 79.2603H205.578V88.8898H242.217V79.2603Z" fill="#6C63FF"/>
<path d="M226.791 80.545C229.985 80.545 232.574 77.9593 232.574 74.7696C232.574 71.5799 229.985 68.9942 226.791 68.9942C223.597 68.9942 221.008 71.5799 221.008 74.7696C221.008 77.9593 223.597 80.545 226.791 80.545Z" fill="#6C63FF"/>
<path d="M215.885 83.6578L215.815 83.5879C215.946 83.4888 216.053 83.3606 216.126 83.2134C216.199 83.0663 216.237 82.9042 216.237 82.7398C216.237 82.5755 216.199 82.4134 216.126 82.2663C216.053 82.1191 215.946 81.9909 215.815 81.8918L215.877 81.8141C216.018 81.923 216.131 82.0625 216.209 82.2219C216.288 82.3813 216.328 82.5565 216.328 82.734C216.328 82.9115 216.288 83.0867 216.209 83.2462C216.131 83.4056 216.018 83.5451 215.877 83.6539L215.885 83.6578Z" fill="#4D8AF0"/>
<path opacity="0.1" d="M215.885 83.6578L215.815 83.5879C215.946 83.4888 216.053 83.3606 216.126 83.2134C216.199 83.0663 216.237 82.9042 216.237 82.7398C216.237 82.5755 216.199 82.4134 216.126 82.2663C216.053 82.1191 215.946 81.9909 215.815 81.8918L215.877 81.8141C216.018 81.923 216.131 82.0625 216.209 82.2219C216.288 82.3813 216.328 82.5565 216.328 82.734C216.328 82.9115 216.288 83.0867 216.209 83.2462C216.131 83.4056 216.018 83.5451 215.877 83.6539L215.885 83.6578Z" fill="black"/>
<path d="M215.815 83.6578C215.675 83.549 215.561 83.4095 215.483 83.2501C215.405 83.0906 215.364 82.9155 215.364 82.7379C215.364 82.5604 215.405 82.3852 215.483 82.2258C215.561 82.0664 215.675 81.9269 215.815 81.8181L215.877 81.8957C215.746 81.9948 215.64 82.123 215.566 82.2702C215.493 82.4173 215.455 82.5794 215.455 82.7438C215.455 82.9081 215.493 83.0702 215.566 83.2173C215.64 83.3645 215.746 83.4927 215.877 83.5918L215.815 83.6578Z" fill="#4D8AF0"/>
<path d="M245.443 114.732C248.097 113.726 250.347 111.89 252.438 109.965C256.574 106.154 260.476 101.426 260.81 95.8102C260.931 93.7608 260.561 91.7193 260.192 89.6971C259.45 85.6217 258.692 81.4998 257.009 77.7116C255.153 73.5484 252.247 69.9374 248.575 67.2321C248.028 66.8192 247.351 66.6179 246.667 66.6654C245.501 66.7702 245.205 67.5697 245.05 68.3344C244.106 72.9919 246.698 77.5098 248.595 81.8569C250.495 86.2164 251.754 90.8271 252.333 95.5462C252.578 97.549 252.668 99.7148 251.611 101.438C250.965 102.494 249.955 103.262 248.968 104.008C247.491 105.121 245.858 106.29 244.008 106.235C242.158 106.181 240.091 104.594 238.179 105.106C236.266 105.618 234.863 108.556 234.852 110.439C234.828 115.539 241.89 116.075 245.443 114.732Z" fill="#FFD180"/>
<g opacity="0.1">
<path opacity="0.1" d="M251.603 101.438C250.958 102.494 249.947 103.262 248.96 104.008C247.972 104.822 246.863 105.476 245.672 105.948C247.351 105.836 248.855 104.784 250.219 103.74C251.206 102.994 252.217 102.222 252.862 101.17C253.915 99.4508 253.83 97.289 253.585 95.2784C253.005 90.5593 251.746 85.9485 249.846 81.5891C247.949 77.2381 245.353 72.7164 246.301 68.0666C246.328 67.7917 246.41 67.5251 246.544 67.2834C246.678 67.0417 246.86 66.83 247.079 66.6615C246.935 66.6493 246.791 66.6493 246.647 66.6615C245.481 66.7663 245.186 67.5659 245.031 68.3305C244.086 72.9881 246.679 77.5059 248.575 81.853C250.475 86.2124 251.735 90.8232 252.314 95.5424C252.571 97.549 252.66 99.7148 251.603 101.438Z" fill="black"/>
<path opacity="0.1" d="M236.119 110.183C236.119 108.444 237.358 105.801 239.026 105.009C238.742 105.002 238.458 105.034 238.182 105.106C236.305 105.614 234.867 108.556 234.855 110.439C234.832 115.197 240.969 115.974 244.681 114.976C240.992 115.512 236.095 114.421 236.119 110.183Z" fill="black"/>
</g>
<g opacity="0.5">
<path opacity="0.5" d="M209.048 57.129C209.048 57.129 219.636 55.0137 224.929 57.129C224.929 57.129 228.104 49.7274 231.28 49.7274C234.455 49.7274 235.512 61.3713 235.512 61.3713L239.745 78.286C239.745 78.286 259.858 114.231 239.745 133.257C219.632 152.283 187.878 131.13 187.878 117.386C187.878 103.643 194.229 75.1034 194.229 75.1034C194.229 75.1034 200.58 51.8466 202.698 49.7312C204.816 47.6159 209.048 57.129 209.048 57.129Z" fill="url(#paint7_linear)"/>
</g>
<path d="M209.406 58.6C209.406 58.6 219.581 56.5662 224.669 58.6C224.669 58.6 227.72 51.4856 230.775 51.4856C233.829 51.4856 234.844 62.6638 234.844 62.6638L238.913 78.9226C238.913 78.9226 258.249 113.466 238.913 131.767C219.577 150.067 189.048 129.733 189.048 116.525C189.048 103.317 195.154 75.8758 195.154 75.8758C195.154 75.8758 201.26 53.5194 203.296 51.4856C205.333 49.4518 209.406 58.6 209.406 58.6Z" fill="#FFD180"/>
<g opacity="0.1">
<path opacity="0.1" d="M246.022 97.9177C244.461 91.3125 242.068 84.9313 238.901 78.9265L239.543 81.4959C242.3 86.7156 244.472 92.2228 246.022 97.9177Z" fill="white"/>
<path opacity="0.1" d="M190.879 113.788C190.879 100.592 195.803 78.4452 195.803 78.4452C195.803 78.4452 201.909 56.0888 203.945 54.055C205.982 52.0212 210.051 61.1695 210.051 61.1695C210.051 61.1695 220.226 59.1357 225.314 61.1695C225.314 61.1695 228.369 54.055 231.42 54.055C232.586 54.055 233.483 55.7395 234.113 57.8005C233.491 54.7847 232.434 51.4856 230.778 51.4856C227.727 51.4856 224.673 58.6 224.673 58.6C219.585 56.5662 209.41 58.6 209.41 58.6C209.41 58.6 205.341 49.4557 203.304 51.4856C201.267 53.5155 195.162 75.8758 195.162 75.8758C195.162 75.8758 190.237 97.9992 190.237 111.219C190.233 112.414 190.879 114.169 190.879 113.788Z" fill="white"/>
</g>
<path d="M229.251 78.418C230.376 78.418 231.288 77.5075 231.288 76.3842C231.288 75.261 230.376 74.3504 229.251 74.3504C228.126 74.3504 227.214 75.261 227.214 76.3842C227.214 77.5075 228.126 78.418 229.251 78.418Z" fill="#58555D"/>
<path d="M205.846 78.418C206.971 78.418 207.882 77.5075 207.882 76.3842C207.882 75.261 206.971 74.3504 205.846 74.3504C204.721 74.3504 203.809 75.261 203.809 76.3842C203.809 77.5075 204.721 78.418 205.846 78.418Z" fill="#58555D"/>
<path d="M218.058 80.4518C219.743 80.4518 221.109 79.5413 221.109 78.418C221.109 77.2948 219.743 76.3842 218.058 76.3842C216.373 76.3842 215.007 77.2948 215.007 78.418C215.007 79.5413 216.373 80.4518 218.058 80.4518Z" fill="#58555D"/>
<path d="M244.406 73.839L235.247 75.8701L235.467 76.8628L244.626 74.8317L244.406 73.839Z" fill="#FFD180"/>
<path d="M245.437 77.9053L235.26 79.9306L235.459 80.9279L245.636 78.9026L245.437 77.9053Z" fill="#FFD180"/>
<path d="M188.731 70.8283L188.353 71.7725L198.53 75.8372L198.908 74.893L188.731 70.8283Z" fill="#FFD180"/>
<path d="M185.583 75.8908L185.428 76.8959L198.658 78.9294L198.813 77.9243L185.583 75.8908Z" fill="#FFD180"/>
<path opacity="0.1" d="M215.52 91.4204C212.856 91.4228 210.197 91.1969 207.572 90.7451C202.524 89.8769 197.668 88.1338 193.222 85.5946L193.576 83.9528C198.072 86.3843 202.926 88.0874 207.956 88.9985C215.283 90.2522 227.883 89.8757 240.689 82.8194L241.544 84.372C232.248 89.5031 222.461 91.4204 215.52 91.4204Z" fill="black"/>
<path d="M240.689 82.4429C227.863 89.4992 215.279 89.8756 207.956 88.622C202.926 87.7109 198.072 86.0078 193.576 83.5763L192.635 85.0745C197.295 87.6316 202.339 89.4157 207.572 90.3569C210.198 90.8102 212.858 91.0375 215.524 91.0362C222.465 91.0362 232.236 89.1227 241.564 83.9993L240.689 82.4429ZM215.85 90.8964C215.811 90.8964 215.772 90.8848 215.74 90.8631C215.707 90.8413 215.682 90.8104 215.667 90.7742C215.652 90.7381 215.648 90.6983 215.656 90.6599C215.663 90.6215 215.682 90.5862 215.71 90.5585C215.738 90.5308 215.773 90.512 215.811 90.5043C215.85 90.4967 215.89 90.5006 215.926 90.5156C215.962 90.5306 215.993 90.556 216.015 90.5885C216.037 90.6211 216.048 90.6593 216.048 90.6985C216.047 90.7503 216.026 90.7997 215.989 90.836C215.952 90.8722 215.902 90.8926 215.85 90.8926V90.8964Z" fill="#F55F44"/>
<path opacity="0.1" d="M213.879 93.6444C213.879 94.1653 214.087 94.6648 214.455 95.0331C214.824 95.4014 215.325 95.6083 215.846 95.6083C216.368 95.6083 216.868 95.4014 217.237 95.0331C217.606 94.6648 217.813 94.1653 217.813 93.6444C217.813 93.1235 217.606 92.624 217.237 92.2557C216.868 91.8874 216.368 91.6805 215.846 91.6805C215.325 91.6805 214.824 91.8874 214.455 92.2557C214.087 92.624 213.879 93.1235 213.879 93.6444ZM215.846 92.6624C215.782 92.6624 215.718 92.6433 215.665 92.6075C215.611 92.5717 215.569 92.5207 215.544 92.4612C215.52 92.4016 215.513 92.336 215.526 92.2728C215.538 92.2096 215.57 92.1515 215.615 92.1059C215.661 92.0603 215.719 92.0292 215.782 92.0166C215.846 92.0041 215.911 92.0105 215.971 92.0352C216.031 92.0599 216.082 92.1017 216.118 92.1553C216.153 92.2089 216.173 92.2719 216.173 92.3364C216.173 92.4222 216.139 92.5045 216.078 92.5656C216.018 92.6266 215.936 92.6614 215.85 92.6624H215.846Z" fill="url(#paint8_linear)"/>
<path d="M214.078 93.6444C214.078 94.1138 214.264 94.564 214.597 94.8959C214.929 95.2278 215.38 95.4143 215.85 95.4143C216.32 95.4143 216.771 95.2278 217.103 94.8959C217.436 94.564 217.622 94.1138 217.622 93.6444C217.622 93.175 217.436 92.7248 217.103 92.3929C216.771 92.061 216.32 91.8745 215.85 91.8745C215.38 91.8745 214.929 92.061 214.597 92.3929C214.264 92.7248 214.078 93.175 214.078 93.6444ZM215.85 92.7595C215.792 92.7595 215.734 92.7422 215.686 92.7098C215.637 92.6773 215.599 92.6313 215.577 92.5774C215.555 92.5235 215.549 92.4642 215.56 92.4069C215.572 92.3497 215.6 92.2972 215.641 92.2559C215.682 92.2147 215.735 92.1866 215.792 92.1752C215.85 92.1638 215.909 92.1696 215.963 92.192C216.017 92.2143 216.063 92.2521 216.096 92.3006C216.128 92.3491 216.145 92.4061 216.145 92.4645C216.145 92.5427 216.114 92.6177 216.059 92.6731C216.003 92.7284 215.928 92.7595 215.85 92.7595Z" fill="#4D8AF0"/>
<path d="M238.081 83.0329C210.996 98.9463 195.387 84.1973 195.387 84.1973L238.081 83.0329Z" fill="#FFD180"/>
<path d="M312.385 161.214C310.726 156.514 292.952 169.753 292.952 169.753L288.844 169.509L280.939 162.196L286.458 156.685L240.114 116.998C238.877 115.94 237.432 115.152 235.872 114.684C234.312 114.216 232.671 114.079 231.054 114.281L192.527 119.079C192.359 116.874 190.999 114.254 189.075 111.58C185.123 105.106 176.801 97.7974 173.731 95.2008L169.02 63.5759L173.012 57.5948C172.273 57.393 171.546 57.1494 170.835 56.8651L171.679 55.5998L171.368 55.5144L171.757 55.0564H171.71L181.652 43.5677C182.39 42.7151 182.769 41.6098 182.708 40.4842C182.647 39.3586 182.151 38.3005 181.325 37.5323L159.075 20.6486C159.749 19.0404 160.073 17.307 160.023 15.564C160.198 12.2106 158.694 8.80668 153.653 6.28771C150.534 4.80255 147.266 3.6499 143.905 2.84887C138.367 1.42567 132.547 1.51145 127.053 3.09727C126.964 2.98471 126.866 2.87215 126.765 2.75572C119.917 -5.06125 110.935 6.17127 110.585 6.63703L75.4816 45.6287C74.5271 47.1423 74.1779 48.9592 74.5034 50.7181C74.8289 52.4771 75.8053 54.0494 77.2384 55.1224L95.8202 69.0369L95.7619 69.1572L96.8113 69.9335C96.034 71.486 94.9496 72.5339 93.531 72.6931L96.376 74.1136C95.9266 74.4277 95.4054 74.6239 94.8602 74.6842L107.888 81.1893C107.888 87.9505 108.588 118.904 119.595 134.099C120.722 135.969 122.064 137.702 123.594 139.261C123.594 139.261 124.53 138.753 126.241 137.93L128.207 141.862C130.369 146.179 133.835 149.707 138.116 151.946C142.397 154.186 147.275 155.023 152.059 154.34L213.215 145.615L212.566 147.556L212.916 147.505L193.094 206.889L196.366 207.98L196.304 208.097L196.767 208.294L192.643 216.057L179.666 226.024C179.666 226.024 217.595 244.961 221.587 241.973C225.578 238.984 207.595 226.024 207.595 226.024L206.596 222.038L210.961 212.836L214.618 214.054L244.008 155.353L245.007 153.358L264.899 178.199L270.507 172.602L271.114 173.215L271.164 173.165L278.937 181.021L284.569 196.371C284.569 196.371 314.037 165.914 312.385 161.214ZM158.087 47.0648L157.699 46.6145C155.328 49.576 151.134 53.1584 146.459 55.5843V52.3201L146.68 52.126V50.7054C149.636 47.9888 151.773 44.502 152.851 40.6378C153.929 36.7737 153.905 32.6857 152.782 28.8343L165.693 38.7355L158.087 47.0648ZM114.266 10.2583L113.955 9.94779L114.27 10.2583H114.266ZM103.947 31.0155C103.862 32.0506 103.827 33.0921 103.842 34.14C103.819 35.6616 103.904 37.183 104.095 38.6928C104.759 43.9675 106.652 48.2796 110.55 50.3367C113.947 52.1221 116.182 52.0251 117.605 50.8064L117.76 50.9461C117.88 53.0091 118.416 55.0265 119.338 56.8767C112.061 55.3594 105.112 52.5642 98.8129 48.6212C98.8129 48.6212 98.8362 48.8851 98.8634 49.3586L93.5232 44.0257L103.947 31.0155Z" fill="url(#paint9_linear)"/>
<path d="M201.392 196.887L192.666 213.348L206.238 219.154L214.964 200.761L201.392 196.887Z" fill="#FDA57D"/>
<path d="M206.238 219.154L207.206 223.036C207.206 223.036 224.657 235.623 220.778 238.526C216.899 241.429 180.058 223.036 180.058 223.036L192.663 213.352L206.238 219.154Z" fill="#333333"/>
<path opacity="0.1" d="M214.035 202.469L200.304 197.9L196.219 205.601L209.791 211.411L214.035 202.469Z" fill="black"/>
<path d="M263.391 166.054L276.496 179.305L286.116 168.115L271.16 154.286L263.391 166.054Z" fill="#FDA57D"/>
<path opacity="0.1" d="M271.7 154.93L263.931 166.702L268.898 171.721L278.976 161.657L271.7 154.93Z" fill="black"/>
<path d="M286.116 168.111L290.107 168.348C290.107 168.348 307.364 155.497 308.977 160.061C310.59 164.626 281.969 194.217 281.969 194.217L276.5 179.305L286.116 168.111Z" fill="#333333"/>
<path d="M161.857 69.0369L181.998 45.749C182.715 44.9204 183.083 43.8462 183.024 42.7524C182.964 41.6586 182.482 40.6305 181.679 39.8843L137.854 6.71466L132.533 15.0051L166.498 41.1147L152.079 56.9039L161.857 69.0369Z" fill="#FDA57D"/>
<path opacity="0.1" d="M159.545 48.757L152.498 56.4731L162.289 68.6216L172.394 56.9544C167.464 55.396 163.033 52.5687 159.545 48.757Z" fill="black"/>
<path d="M103.384 74.0903L80.5808 57.0126C79.1892 55.9699 78.2411 54.4427 77.925 52.7342C77.6089 51.0257 77.9479 49.261 78.8746 47.7906L112.995 9.87405L119.991 16.8604L96.3876 46.2225L110.341 60.1564L103.384 74.0903Z" fill="#FDA57D"/>
<path opacity="0.1" d="M98.5602 70.6515L102.291 73.4461L109.287 59.5122L100.504 50.7676C100.69 53.7329 101.215 65.2565 98.5602 70.6515Z" fill="black"/>
<path d="M214.031 141.722L193.098 204.433L214.031 211.4L248.913 141.722L221.008 134.755L214.031 141.722Z" fill="#4D8AF0"/>
<path opacity="0.1" d="M213.059 143.659L212.014 146.795L233.993 143.659L242.578 154.379L247.946 143.659L220.036 136.692L213.059 143.659Z" fill="black"/>
<path d="M112.948 9.91674C112.948 9.91674 121.888 -1.59523 128.677 6.15186C135.467 13.899 118.013 14.8654 118.013 14.8654L112.948 9.91674Z" fill="#FDA57D"/>
<path d="M123.33 127.788L130.073 141.26C132.172 145.453 135.539 148.88 139.697 151.056C143.856 153.231 148.594 154.045 153.241 153.382L234.96 141.738L262.87 176.576L283.799 155.676L238.773 117.134C237.572 116.106 236.168 115.339 234.653 114.884C233.138 114.429 231.544 114.295 229.974 114.491L123.33 127.788Z" fill="#4D8AF0"/>
<path opacity="0.1" d="M102.824 52.6267C102.824 52.6267 104.662 75.2547 97.6858 76.031L111.639 83.0174C111.639 83.0174 110.861 124.047 125.592 138.757C125.592 138.757 152.724 124.047 181.407 124.823C210.09 125.599 174.411 96.9513 174.411 96.9513L169.701 65.2332L173.587 59.4112C168.332 57.8398 163.628 54.8196 160.015 50.6977C156.129 55.5377 147.244 62.101 139.537 62.101H136.202C124.713 62.101 112.494 59.7722 102.812 53.6009L102.824 52.6267Z" fill="black"/>
<path d="M101.53 50.6899C101.53 50.6899 103.384 73.318 96.3876 74.0904L110.341 81.0767C110.341 81.0767 109.563 122.106 124.293 136.816C124.293 136.816 151.426 122.106 180.109 122.882C208.792 123.659 173.113 95.0106 173.113 95.0106L168.402 63.2926L172.289 57.4706C167.034 55.8992 162.33 52.879 158.717 48.757C154.83 53.597 145.946 60.1603 138.239 60.1603H134.904C123.415 60.1603 111.196 56.8729 101.514 50.6899H101.53Z" fill="#3AD29F"/>
<path d="M119.909 44.3091V52.0717C119.91 56.0141 121.478 59.7948 124.27 62.5823L140.843 79.1322L146.358 68.1131C147.318 66.1946 147.819 64.0791 147.819 61.9341V44.3091H119.909Z" fill="#FDA57D"/>
<path opacity="0.1" d="M120.123 53.271C120.123 53.5582 120.123 53.8416 120.15 54.1288C123.989 57.5474 128.953 59.4346 134.096 59.4303C139.239 59.426 144.2 57.5305 148.033 54.1055V45.4929H120.123V53.271Z" fill="black"/>
<path d="M133.862 58.2469C145.421 58.2469 154.792 48.8892 154.792 37.346C154.792 25.8028 145.421 16.4451 133.862 16.4451C122.303 16.4451 112.933 25.8028 112.933 37.346C112.933 48.8892 122.303 58.2469 133.862 58.2469Z" fill="#FDA57D"/>
<path opacity="0.1" d="M119.909 31.4503H154.795C154.795 31.4503 168.748 17.5164 154.795 10.5494C151.766 9.10768 148.592 7.98885 145.328 7.21148C124.111 1.83975 103.935 19.3639 106.664 41.0526C107.309 46.176 109.147 50.3678 112.933 52.3511C127.659 60.0827 119.909 31.4503 119.909 31.4503Z" fill="black"/>
<path d="M119.909 30.4838H154.795C154.795 30.4838 168.748 16.5499 154.795 9.58295C151.766 8.14122 148.592 7.02239 145.328 6.24502C124.111 0.873287 103.935 18.3974 106.664 40.0862C107.309 45.2095 109.147 49.4013 112.933 51.3847C127.659 59.1279 119.909 30.4838 119.909 30.4838Z" fill="#333333"/>
<path d="M120.92 41.0061C121.991 41.0061 122.859 39.489 122.859 37.6177C122.859 35.7463 121.991 34.2293 120.92 34.2293C119.849 34.2293 118.98 35.7463 118.98 37.6177C118.98 39.489 119.849 41.0061 120.92 41.0061Z" fill="#FDA57D"/>
<path opacity="0.1" d="M110.255 80.7041L111.227 77.797L114.134 79.7338L110.255 80.7041Z" fill="black"/>
<path opacity="0.1" d="M173.167 95.0145C173.167 95.0145 162.611 100.06 159.7 104.912L173.167 95.0145Z" fill="black"/>
<path opacity="0.1" d="M168.426 63.277L167.458 66.1802L165.519 63.277H168.426Z" fill="black"/>
<path d="M119.909 30.4838H154.795C154.795 30.4838 168.748 16.5499 154.795 9.58295C151.766 8.14122 148.592 7.02239 145.328 6.24502C124.111 0.873287 103.935 18.3974 106.664 40.0862C107.309 45.2095 109.147 49.4013 112.933 51.3847C127.659 59.1279 119.909 30.4838 119.909 30.4838Z" fill="#333333"/>
<path opacity="0.1" d="M213.763 108.739C213.763 108.739 220.84 124.105 211.548 125.428C202.255 126.752 206.495 112.558 206.495 112.558C206.495 112.558 205.566 108.347 203.304 108.11" fill="black"/>
<path opacity="0.1" d="M222.313 108.366C222.313 108.366 213.899 123.045 223.036 125.172C232.174 127.299 229.212 112.803 229.212 112.803C229.212 112.803 230.51 108.692 232.788 108.653" fill="black"/>
<path d="M212.943 108.308C212.943 108.308 220.02 123.674 210.727 124.998C201.435 126.321 205.675 112.127 205.675 112.127C205.675 112.127 204.746 107.904 202.492 107.668" fill="#FFD180"/>
<path d="M222.97 107.718C222.97 107.718 214.54 122.401 223.693 124.512C232.846 126.624 229.869 112.143 229.869 112.143C229.869 112.143 231.167 108.032 233.445 107.994" fill="#FFD180"/>
<path opacity="0.5" d="M207.906 121.803H207.746V124.804H207.906V121.803Z" fill="#58555D"/>
<path opacity="0.5" d="M210.479 121.803H210.319V124.804H210.479V121.803Z" fill="#58555D"/>
<path opacity="0.5" d="M209.083 120.848H208.924V125.044H209.083V120.848Z" fill="#58555D"/>
<path opacity="0.5" d="M224.618 121.163H224.459V124.163H224.618V121.163Z" fill="#58555D"/>
<path opacity="0.5" d="M227.191 121.163H227.032V124.163H227.191V121.163Z" fill="#58555D"/>
<path opacity="0.5" d="M225.796 120.204H225.636V124.4H225.796V120.204Z" fill="#58555D"/>
<g opacity="0.5">
<path opacity="0.5" d="M219.401 297.357C229.086 294.113 234.304 283.643 231.056 273.971C227.808 264.299 217.323 259.088 207.638 262.332C197.953 265.575 192.735 276.045 195.983 285.717C199.231 295.389 209.716 300.6 219.401 297.357Z" fill="url(#paint10_linear)"/>
</g>
<path d="M219.025 296.238C228.091 293.202 232.976 283.4 229.936 274.346C226.895 265.292 217.08 260.414 208.014 263.45C198.948 266.487 194.063 276.288 197.103 285.342C200.144 294.396 209.959 299.275 219.025 296.238Z" fill="#F55F44"/>
<g opacity="0.5">
<path opacity="0.5" d="M167.439 303.006C164.951 303.841 161.853 303.247 160.699 300.864C160.035 299.486 160.194 297.945 160.349 296.455C160.52 294.821 160.664 293.412 159.743 292.5C159.267 292.095 158.707 291.802 158.103 291.642C157.326 291.382 156.486 291.164 155.685 290.955C154.258 290.627 152.863 290.17 151.519 289.589C148.876 288.35 147.185 286.258 146.999 283.992C146.84 282.051 147.776 280.281 148.67 278.585C149.564 276.889 150.466 275.204 150.038 273.539C149.459 271.292 146.758 270.225 144.379 269.27L143.991 269.122C141.083 267.958 137.966 265.501 138.744 262.35C139.016 261.251 139.712 260.409 140.384 259.633C140.84 259.128 141.231 258.568 141.55 257.968C142.599 255.759 141.161 253.205 140.52 252.208C140.019 251.431 139.424 250.717 138.849 250.007C137.947 248.964 137.149 247.835 136.466 246.638L136.357 246.436C134.779 243.455 134.748 243.331 134.88 240.082V239.694L136.256 239.749V240.137C136.14 243.083 136.14 243.083 137.574 245.792L137.683 245.994C138.324 247.113 139.072 248.167 139.918 249.141C140.512 249.875 141.126 250.636 141.666 251.447C143.334 253.966 143.742 256.555 142.79 258.554C142.418 259.256 141.958 259.908 141.422 260.494C140.823 261.208 140.256 261.884 140.061 262.676C139.455 265.125 142.553 267.073 144.48 267.842L144.85 267.989C147.403 268.998 150.582 270.256 151.336 273.178C151.896 275.348 150.858 277.304 149.852 279.198C149.008 280.79 148.208 282.303 148.336 283.856C148.507 285.94 150.376 287.528 152.067 288.323C153.335 288.869 154.65 289.298 155.996 289.604C156.82 289.818 157.671 290.043 158.503 290.318C159.311 290.54 160.057 290.946 160.68 291.506C162.067 292.88 161.873 294.762 161.686 296.583C161.546 297.941 161.41 299.226 161.908 300.251C162.806 302.106 165.589 302.378 167.524 301.465C169.11 300.72 170.357 299.451 171.679 298.112C172.106 297.677 172.549 297.231 173 296.804C175.464 294.475 177.956 293.458 180.21 293.85C180.925 293.999 181.622 294.224 182.289 294.522C182.808 294.749 183.345 294.934 183.894 295.073C185.12 295.291 186.382 295.04 187.431 294.369C188.479 293.699 189.235 292.658 189.549 291.455C189.6 291.226 189.635 290.986 189.674 290.734C189.794 289.926 189.93 289.01 190.575 288.3C191.221 287.59 192.243 287.33 192.97 287.163L200.471 285.432L200.782 286.771L193.28 288.502C192.569 288.665 191.951 288.836 191.598 289.224C191.244 289.612 191.139 290.26 191.042 290.935C191.003 291.199 190.96 291.475 190.902 291.747C190.507 293.305 189.533 294.654 188.176 295.519C186.82 296.385 185.185 296.701 183.603 296.404C182.979 296.249 182.369 296.041 181.78 295.783C181.203 295.524 180.6 295.326 179.981 295.193C177.695 294.805 175.445 296.385 173.956 297.79C173.525 298.197 173.09 298.64 172.67 299.063C171.321 300.429 169.93 301.846 168.123 302.696C167.901 302.812 167.672 302.916 167.439 303.006Z" fill="url(#paint11_linear)"/>
</g>
<path d="M167.625 302.323C165.138 303.158 162.04 302.564 160.886 300.181C160.221 298.803 160.38 297.262 160.536 295.771C160.707 294.137 160.851 292.728 159.93 291.816C159.454 291.412 158.893 291.119 158.289 290.959C157.512 290.699 156.673 290.481 155.872 290.272C154.444 289.944 153.05 289.487 151.706 288.905C149.063 287.667 147.372 285.575 147.185 283.309C147.026 281.368 147.963 279.598 148.857 277.902C149.751 276.206 150.652 274.521 150.225 272.856C149.646 270.609 146.944 269.542 144.566 268.587L144.177 268.439C141.27 267.275 138.153 264.818 138.93 261.666C139.202 260.568 139.898 259.726 140.57 258.949C141.026 258.444 141.418 257.885 141.736 257.284C142.786 255.076 141.348 252.522 140.706 251.524C140.205 250.748 139.61 250.034 139.035 249.324C138.134 248.28 137.336 247.152 136.653 245.955L136.544 245.753C134.966 242.772 134.935 242.648 135.067 239.399V239.011L136.443 239.065V239.454C136.326 242.4 136.326 242.4 137.76 245.109L137.869 245.31C138.511 246.429 139.259 247.484 140.104 248.458C140.699 249.192 141.313 249.953 141.853 250.764C143.52 253.283 143.928 255.872 142.976 257.87C142.604 258.572 142.145 259.225 141.608 259.811C141.01 260.525 140.442 261.201 140.248 261.992C139.642 264.441 142.739 266.39 144.667 267.158L145.036 267.306C147.59 268.315 150.769 269.573 151.523 272.495C152.083 274.665 151.045 276.621 150.038 278.515C149.195 280.106 148.394 281.62 148.522 283.173C148.693 285.257 150.563 286.844 152.254 287.64C153.521 288.186 154.837 288.615 156.183 288.921C157.007 289.134 157.858 289.36 158.69 289.635C159.498 289.857 160.243 290.263 160.866 290.823C162.254 292.197 162.059 294.079 161.873 295.9C161.733 297.258 161.597 298.543 162.094 299.567C162.992 301.423 165.775 301.694 167.711 300.782C169.296 300.037 170.544 298.768 171.865 297.429C172.293 296.994 172.736 296.548 173.187 296.121C175.651 293.792 178.142 292.775 180.396 293.167C181.112 293.316 181.809 293.541 182.476 293.839C182.995 294.066 183.532 294.251 184.081 294.39C185.306 294.608 186.569 294.356 187.617 293.686C188.665 293.015 189.422 291.975 189.736 290.772C189.786 290.543 189.821 290.303 189.86 290.05C189.981 289.243 190.117 288.327 190.762 287.617C191.407 286.907 192.429 286.646 193.156 286.48L200.657 284.749L200.968 286.088L193.467 287.819C192.756 287.982 192.138 288.152 191.784 288.541C191.431 288.929 191.326 289.577 191.228 290.252C191.19 290.516 191.147 290.792 191.088 291.063C190.694 292.622 189.719 293.971 188.363 294.836C187.007 295.702 185.371 296.018 183.789 295.721C183.165 295.565 182.556 295.358 181.967 295.1C181.389 294.841 180.786 294.643 180.167 294.51C177.882 294.122 175.631 295.702 174.143 297.107C173.711 297.514 173.276 297.957 172.856 298.38C171.508 299.746 170.116 301.163 168.309 302.013C168.087 302.129 167.859 302.233 167.625 302.323Z" fill="#F55F44"/>
<path opacity="0.2" d="M212.511 267.527C212.511 267.527 222.092 266.079 226.783 279.431" stroke="black" stroke-miterlimit="10"/>
<path opacity="0.2" d="M201.913 288.797C201.913 288.797 194.8 278.744 207.474 267.659" stroke="black" stroke-miterlimit="10"/>
<path opacity="0.2" d="M204.824 285.125C204.824 285.125 201.392 279.85 204.991 275.123" stroke="black" stroke-miterlimit="10"/>
<path opacity="0.2" d="M210.968 273.12C210.968 273.12 215.512 274.913 216.149 282.99" stroke="black" stroke-miterlimit="10"/>
<path opacity="0.2" d="M216.301 263.665C216.301 263.665 223.398 265.02 228.349 274.766" stroke="black" stroke-miterlimit="10"/>
<path opacity="0.2" d="M207.156 266.728C207.156 266.728 210.51 264.36 213.623 265.598" stroke="black" stroke-miterlimit="10"/>
<path opacity="0.2" d="M209.69 289.08C209.69 289.08 214.175 291.929 225.734 283.708" stroke="black" stroke-miterlimit="10"/>
<path opacity="0.2" d="M208.893 294.747C208.893 294.747 211.699 297.537 217.541 295.166" stroke="black" stroke-miterlimit="10"/>
<path opacity="0.2" d="M200.572 269.972C199.367 271.757 198.557 273.779 198.197 275.901C197.836 278.023 197.933 280.198 198.481 282.28" stroke="black" stroke-miterlimit="10"/>
<path opacity="0.2" d="M204.338 287.982C204.338 287.982 203.969 290.594 206.895 291.89" stroke="black" stroke-miterlimit="10"/>
<path opacity="0.2" d="M227.603 284.958C227.603 284.958 227.424 290.004 224.626 290.307" stroke="black" stroke-miterlimit="10"/>
<path opacity="0.2" d="M212.247 292.379C213.936 292.604 215.654 292.441 217.27 291.903C218.887 291.365 220.359 290.466 221.575 289.274" stroke="black" stroke-miterlimit="10"/>
<path opacity="0.2" d="M216.569 274.354C216.569 274.354 218.998 276.027 218.757 279.012" stroke="black" stroke-miterlimit="10"/>
<path opacity="0.2" d="M207.303 277.665C207.303 277.665 206.627 281.209 208.372 283.316" stroke="black" stroke-miterlimit="10"/>
<path opacity="0.2" d="M209.355 276.978C209.355 276.978 211.851 280.083 211.171 282.381" stroke="black" stroke-miterlimit="10"/>
</g>
<defs>
<linearGradient id="paint0_linear" x1="188.5" y1="239.194" x2="188.5" y2="35.1375" gradientUnits="userSpaceOnUse">
<stop stop-color="#808080" stop-opacity="0.25"/>
<stop offset="0.54" stop-color="#808080" stop-opacity="0.12"/>
<stop offset="1" stop-color="#808080" stop-opacity="0.1"/>
</linearGradient>
<linearGradient id="paint1_linear" x1="29552.3" y1="-172439" x2="20208.2" y2="-185742" gradientUnits="userSpaceOnUse">
<stop stop-color="#808080" stop-opacity="0.25"/>
<stop offset="0.54" stop-color="#808080" stop-opacity="0.12"/>
<stop offset="1" stop-color="#808080" stop-opacity="0.1"/>
</linearGradient>
<linearGradient id="paint2_linear" x1="4325.33" y1="-25022.4" x2="4158.56" y2="-25259.8" gradientUnits="userSpaceOnUse">
<stop stop-color="#808080" stop-opacity="0.25"/>
<stop offset="0.54" stop-color="#808080" stop-opacity="0.12"/>
<stop offset="1" stop-color="#808080" stop-opacity="0.1"/>
</linearGradient>
<linearGradient id="paint3_linear" x1="5049.62" y1="-24626.5" x2="4882.79" y2="-24864.1" gradientUnits="userSpaceOnUse">
<stop stop-color="#808080" stop-opacity="0.25"/>
<stop offset="0.54" stop-color="#808080" stop-opacity="0.12"/>
<stop offset="1" stop-color="#808080" stop-opacity="0.1"/>
</linearGradient>
<linearGradient id="paint4_linear" x1="3947.91" y1="-24189.4" x2="3781.08" y2="-24426.9" gradientUnits="userSpaceOnUse">
<stop stop-color="#808080" stop-opacity="0.25"/>
<stop offset="0.54" stop-color="#808080" stop-opacity="0.12"/>
<stop offset="1" stop-color="#808080" stop-opacity="0.1"/>
</linearGradient>
<linearGradient id="paint5_linear" x1="4631.8" y1="-23764.1" x2="4464.97" y2="-24001.6" gradientUnits="userSpaceOnUse">
<stop stop-color="#808080" stop-opacity="0.25"/>
<stop offset="0.54" stop-color="#808080" stop-opacity="0.12"/>
<stop offset="1" stop-color="#808080" stop-opacity="0.1"/>
</linearGradient>
<linearGradient id="paint6_linear" x1="21610.2" y1="18132.1" x2="21610.2" y2="10821.3" gradientUnits="userSpaceOnUse">
<stop stop-color="#808080" stop-opacity="0.25"/>
<stop offset="0.54" stop-color="#808080" stop-opacity="0.12"/>
<stop offset="1" stop-color="#808080" stop-opacity="0.1"/>
</linearGradient>
<linearGradient id="paint7_linear" x1="41330.9" y1="38627.6" x2="41330.9" y2="17101.2" gradientUnits="userSpaceOnUse">
<stop stop-color="#808080" stop-opacity="0.25"/>
<stop offset="0.54" stop-color="#808080" stop-opacity="0.12"/>
<stop offset="1" stop-color="#808080" stop-opacity="0.1"/>
</linearGradient>
<linearGradient id="paint8_linear" x1="215.85" y1="95.6083" x2="215.85" y2="91.6805" gradientUnits="userSpaceOnUse">
<stop stop-color="white"/>
<stop offset="1"/>
</linearGradient>
<linearGradient id="paint9_linear" x1="145929" y1="165604" x2="145929" y2="14343.9" gradientUnits="userSpaceOnUse">
<stop stop-color="#808080" stop-opacity="0.25"/>
<stop offset="0.54" stop-color="#808080" stop-opacity="0.12"/>
<stop offset="1" stop-color="#808080" stop-opacity="0.1"/>
</linearGradient>
<linearGradient id="paint10_linear" x1="37861.9" y1="-24727.2" x2="36745.1" y2="-28061.8" gradientUnits="userSpaceOnUse">
<stop stop-color="#808080" stop-opacity="0.25"/>
<stop offset="0.54" stop-color="#808080" stop-opacity="0.12"/>
<stop offset="1" stop-color="#808080" stop-opacity="0.1"/>
</linearGradient>
<linearGradient id="paint11_linear" x1="60530.2" y1="-43566.5" x2="56864.2" y2="-54512.4" gradientUnits="userSpaceOnUse">
<stop stop-color="#808080" stop-opacity="0.25"/>
<stop offset="0.54" stop-color="#808080" stop-opacity="0.12"/>
<stop offset="1" stop-color="#808080" stop-opacity="0.1"/>
</linearGradient>
<clipPath id="clip0">
<rect width="377" height="303.367" fill="white"/>
</clipPath>
</defs>
</svg>
