<svg width="114" height="42" viewBox="0 0 114 42" fill="none" xmlns="http://www.w3.org/2000/svg">
<mask id="mask0" mask-type="alpha" maskUnits="userSpaceOnUse" x="0" y="0" width="114" height="42">
<rect width="114" height="42" fill="#C4C4C4"/>
</mask>
<g mask="url(#mask0)">
<path d="M6.2 25V15.848H9.816L15.928 25H21.24L13.56 13.512L20.824 2.6H15.48L9.816 11.496H6.2V2.6H1.4V25H6.2ZM29.829 13.16H33.765V25H38.213V9.64H25.733C25.445 16.52 24.901 21.544 22.469 21.544C22.181 21.544 21.861 21.48 21.541 21.352V24.872C22.437 25.192 23.269 25.32 23.973 25.32C28.197 25.32 29.381 20.072 29.829 13.16ZM49.3738 20.008L44.8938 9.64H40.1898L47.4538 25.224L47.4218 25.288C46.5898 27.56 45.3738 28.648 43.7738 28.648C43.1658 28.648 42.5578 28.552 41.9498 28.424V32.104C42.7498 32.296 43.5498 32.456 44.3498 32.456C46.8458 32.456 49.2458 31.144 50.9738 26.856L57.7898 9.64H53.1818L49.3738 20.008ZM75.725 17.992C75.725 13.288 72.685 10.6 68.909 10.6C66.573 10.6 64.877 11.656 63.917 13C64.141 11.496 64.973 9.608 66.733 8.648C69.709 7.08 72.301 7.912 74.381 6.216V2.152C72.237 4.232 68.493 3.016 64.077 5.768C61.325 7.496 59.373 10.664 59.373 16.168C59.373 22.792 63.053 25.448 67.565 25.448C72.205 25.448 75.725 22.888 75.725 17.992ZM63.917 18.024C63.917 16.392 64.877 14.152 67.565 14.152C70.285 14.152 71.181 16.296 71.181 18.024C71.181 19.752 70.285 21.896 67.565 21.896C64.877 21.896 63.917 19.752 63.917 18.024ZM77.8053 17.32C77.8053 22.696 81.8373 25.448 86.2853 25.448C90.7653 25.448 94.7653 22.696 94.7653 17.32C94.7653 11.944 90.7653 9.192 86.2853 9.192C81.8373 9.192 77.8053 11.944 77.8053 17.32ZM90.2533 17.32C90.2533 19.688 88.8453 21.48 86.2853 21.48C83.7573 21.48 82.3493 19.688 82.3493 17.32C82.3493 14.952 83.7573 13.16 86.2853 13.16C88.8453 13.16 90.2533 14.952 90.2533 17.32ZM102.117 25V18.92H103.909L108.325 25H113.317L107.589 17.224L112.869 9.64H107.877L103.973 15.368H102.117V9.64H97.6693V25H102.117Z" fill="#6C63FF"/>
<g opacity="0.5">
<path opacity="0.5" d="M93.9242 23.8015C97.5527 19.6978 97.1687 13.4356 93.0665 9.81443C88.9643 6.19323 82.6974 6.58434 79.0689 10.688C75.4404 14.7916 75.8244 21.0539 79.9265 24.6751C84.0287 28.2963 90.2957 27.9051 93.9242 23.8015Z" fill="url(#paint0_linear)"/>
</g>
<path d="M93.4498 23.3826C96.8465 19.5411 96.4871 13.6789 92.647 10.289C88.8068 6.89914 82.9402 7.26527 79.5435 11.1068C76.1468 14.9483 76.5062 20.8105 80.3464 24.2004C84.1865 27.5903 90.0531 27.2241 93.4498 23.3826Z" fill="#F55F44"/>
<g opacity="0.5">
<path opacity="0.5" d="M71.3051 40.3593C70.3735 41.4139 68.7756 41.9687 67.6004 41.1714C66.9222 40.7097 66.5831 39.9512 66.2556 39.2173C65.8969 38.4125 65.5858 37.7196 64.9134 37.543C64.584 37.4827 64.2451 37.4969 63.9216 37.5844C63.4909 37.672 63.0427 37.7962 62.6146 37.9135C61.8637 38.1442 61.0933 38.3058 60.3131 38.3962C58.7536 38.5299 57.4074 38.0116 56.7129 37.0088C56.1185 36.1502 56.0789 35.077 56.0393 34.0495C55.9997 33.022 55.9667 31.9979 55.3217 31.3391C54.4501 30.4507 52.9093 30.6793 51.5485 30.8736L51.3284 30.9093C49.6659 31.1481 47.5594 30.8428 47.0753 29.1706C46.9071 28.5875 47.0044 28.0097 47.1085 27.4689C47.1848 27.1121 47.2168 26.7474 47.2036 26.3829C47.0987 25.0757 45.746 24.2752 45.1806 23.9838C44.7396 23.7577 44.2719 23.5855 43.8143 23.4099C43.1158 23.167 42.4427 22.857 41.8043 22.484L41.6997 22.4194C40.1674 21.4581 40.1197 21.4087 39.3099 19.8644L39.2059 19.6842L39.8595 19.3405L39.9635 19.5207C40.6993 20.9203 40.6993 20.9202 42.0919 21.794L42.1966 21.8585C42.7945 22.2063 43.4248 22.4952 44.0786 22.7212C44.5515 22.9025 45.0407 23.0912 45.5092 23.3231C46.9591 24.0459 47.8428 25.1389 47.9366 26.3226C47.952 26.7484 47.9134 27.1746 47.8215 27.5908C47.735 28.083 47.6526 28.5488 47.7747 28.9687C48.1498 30.2688 50.111 30.3431 51.2124 30.1831L51.4235 30.1526C52.8801 29.9366 54.6939 29.6681 55.8278 30.8234C56.6696 31.681 56.7121 32.8678 56.7525 34.0175C56.7875 34.9828 56.8216 35.9005 57.2974 36.5872C57.9358 37.5094 59.2297 37.7454 60.2283 37.6616C60.9636 37.5751 61.6894 37.4215 62.3968 37.2028C62.8368 37.081 63.2925 36.9573 63.7527 36.8623C64.1874 36.7484 64.6426 36.7375 65.082 36.8303C66.0949 37.0964 66.5094 38.0228 66.9109 38.9183C67.2102 39.5868 67.4915 40.2199 67.9974 40.5624C68.9119 41.1834 70.2772 40.5633 70.9316 39.6207C71.4683 38.8494 71.7074 37.9253 71.962 36.949C72.044 36.6325 72.1301 36.3064 72.2251 35.9872C72.7451 34.2448 73.6295 33.1044 74.7816 32.682C75.1536 32.5592 75.5378 32.4769 75.9274 32.4363C76.2295 32.4029 76.5282 32.3445 76.8207 32.2619C77.4483 32.0345 77.9674 31.5792 78.2744 30.9867C78.5814 30.3943 78.6538 29.7082 78.4772 29.0653C78.4393 28.9454 78.391 28.8243 78.3414 28.6967C78.1809 28.2894 77.9984 27.8275 78.1076 27.3246C78.2168 26.8217 78.6218 26.4268 78.9146 26.1544L81.9344 23.3389L82.4379 23.8775L79.4181 26.693C79.1315 26.9594 78.8903 27.2044 78.8301 27.4795C78.7699 27.7546 78.895 28.0838 79.0309 28.4236C79.0836 28.5566 79.1377 28.696 79.1835 28.8378C79.418 29.6674 79.3271 30.5554 78.9292 31.321C78.5314 32.0866 77.8566 32.6722 77.0423 32.9583C76.7108 33.0534 76.3719 33.1205 76.0292 33.1587C75.6915 33.1931 75.3583 33.263 75.0352 33.3672C73.8697 33.7998 73.2481 35.1369 72.9335 36.1887C72.8424 36.4936 72.7589 36.8159 72.6774 37.1249C72.4173 38.1211 72.151 39.1522 71.5395 40.0317C71.4678 40.1453 71.3895 40.2547 71.3051 40.3593Z" fill="url(#paint1_linear)"/>
</g>
<path d="M71.2085 39.992C70.277 41.0466 68.679 41.6014 67.5038 40.8041C66.8257 40.3424 66.4865 39.584 66.159 38.8501C65.8003 38.0453 65.4893 37.3523 64.8169 37.1757C64.4874 37.1155 64.1486 37.1296 63.8251 37.2171C63.3943 37.3048 62.9461 37.4289 62.518 37.5463C61.7671 37.7769 60.9968 37.9385 60.2166 38.029C58.657 38.1626 57.3108 37.6443 56.6163 36.6416C56.0219 35.7829 55.9824 34.7097 55.9427 33.6823C55.9031 32.6548 55.8702 31.6306 55.2251 30.9719C54.3535 30.0834 52.8127 30.312 51.4519 30.5064L51.2319 30.5421C49.5694 30.7808 47.4628 30.4756 46.9787 28.8033C46.8105 28.2202 46.9078 27.6425 47.0119 27.1016C47.0883 26.7449 47.1202 26.3801 47.107 26.0156C47.0022 24.7085 45.6494 23.9079 45.0841 23.6166C44.6431 23.3905 44.1754 23.2183 43.7178 23.0426C43.0193 22.7998 42.3461 22.4897 41.7078 22.1167L41.6031 22.0522C40.0709 21.0908 40.0231 21.0415 39.2134 19.4972L39.1093 19.3169L39.7629 18.9732L39.867 19.1535C40.6028 20.553 40.6028 20.553 41.9954 21.4267L42.1 21.4913C42.6979 21.839 43.3282 22.1279 43.9821 22.354C44.455 22.5353 44.9442 22.7239 45.4126 22.9558C46.8625 23.6787 47.7463 24.7716 47.84 25.9554C47.8555 26.3812 47.8168 26.8073 47.725 27.2236C47.6385 27.7158 47.556 28.1816 47.6781 28.6015C48.0532 29.9016 50.0144 29.9759 51.1159 29.8159L51.3269 29.7854C52.7835 29.5693 54.5973 29.3009 55.7312 30.4561C56.573 31.3138 56.6156 32.5006 56.656 33.6502C56.691 34.6155 56.725 35.5333 57.2009 36.22C57.8392 37.1421 59.1332 37.3781 60.1318 37.2943C60.867 37.2078 61.5929 37.0543 62.3003 36.8356C62.7402 36.7138 63.1959 36.5901 63.6561 36.495C64.0908 36.3812 64.546 36.3702 64.9855 36.463C65.9984 36.7291 66.4129 37.6555 66.8144 38.551C67.1137 39.2195 67.395 39.8527 67.9008 40.1952C68.8153 40.8161 70.1806 40.1961 70.835 39.2534C71.3717 38.4821 71.6108 37.5581 71.8655 36.5818C71.9475 36.2652 72.0336 35.9391 72.1285 35.6199C72.6485 33.8775 73.5329 32.7372 74.685 32.3148C75.0571 32.192 75.4412 32.1096 75.8309 32.069C76.1329 32.0356 76.4317 31.9773 76.7242 31.8946C77.3518 31.6672 77.8708 31.2119 78.1778 30.6195C78.4849 30.027 78.5573 29.3409 78.3807 28.6981C78.3427 28.5781 78.2944 28.457 78.2448 28.3294C78.0843 27.9221 77.9019 27.4602 78.0111 26.9573C78.1202 26.4544 78.5253 26.0595 78.8181 25.7871L81.8379 22.9717L82.3413 23.5102L79.3216 26.3257C79.0349 26.5921 78.7937 26.8371 78.7335 27.1123C78.6733 27.3874 78.7984 27.7166 78.9344 28.0563C78.9871 28.1893 79.0411 28.3287 79.0869 28.4706C79.3214 29.3001 79.2305 30.1881 78.8327 30.9537C78.4349 31.7194 77.76 32.3049 76.9458 32.5911C76.6143 32.6862 76.2753 32.7532 75.9326 32.7914C75.5949 32.8258 75.2618 32.8957 74.9386 33C73.7731 33.4325 73.1515 34.7697 72.8369 35.8214C72.7458 36.1264 72.6623 36.4486 72.5808 36.7577C72.3208 37.7539 72.0544 38.785 71.4429 39.6644C71.3712 39.778 71.2929 39.8874 71.2085 39.992Z" fill="#F55F44"/>
<path opacity="0.2" d="M82.7256 11.7943C82.7256 11.7943 86.7871 8.55286 92.5462 13.4962" stroke="black" stroke-width="0.2" stroke-miterlimit="10"/>
<path opacity="0.2" d="M83.5065 24.5153C83.5065 24.5153 77.5074 21.7535 80.4216 13.2063" stroke="black" stroke-width="0.2" stroke-miterlimit="10"/>
<path opacity="0.2" d="M83.874 22.0292C83.874 22.0292 80.8656 20.4996 81.2695 17.3388" stroke="black" stroke-width="0.2" stroke-miterlimit="10"/>
<path opacity="0.2" d="M83.5088 14.8058C83.5088 14.8058 86.0999 14.4203 88.5618 18.0008" stroke="black" stroke-width="0.2" stroke-miterlimit="10"/>
<path opacity="0.2" d="M83.4501 8.98447C83.4501 8.98447 87.1095 7.71053 92.0227 10.9093" stroke="black" stroke-width="0.2" stroke-miterlimit="10"/>
<path opacity="0.2" d="M80.0237 12.8591C80.0237 12.8591 80.9467 10.8601 82.7246 10.6003" stroke="black" stroke-width="0.2" stroke-miterlimit="10"/>
<path opacity="0.2" d="M87.1946 22.5613C87.1946 22.5613 90.0417 22.6818 93.2058 15.7642" stroke="black" stroke-width="0.2" stroke-miterlimit="10"/>
<path opacity="0.2" d="M88.3441 25.407C88.3441 25.407 90.3958 25.9507 92.473 23.2828" stroke="black" stroke-width="0.2" stroke-miterlimit="10"/>
<path opacity="0.2" d="M77.8359 16.1317C77.755 17.2838 77.9208 18.4397 78.3225 19.5221C78.7241 20.6045 79.3523 21.5886 80.165 22.4087" stroke="black" stroke-width="0.2" stroke-miterlimit="10"/>
<path opacity="0.2" d="M84.4143 23.4863C84.4143 23.4863 84.9433 24.7985 86.6502 24.6159" stroke="black" stroke-width="0.2" stroke-miterlimit="10"/>
<path opacity="0.2" d="M94.4092 15.8433C94.4092 15.8433 95.6792 18.2348 94.4607 19.1258" stroke="black" stroke-width="0.2" stroke-miterlimit="10"/>
<path opacity="0.2" d="M89.2671 23.4079C90.1118 23.0595 90.8662 22.5232 91.4726 21.8399C92.0791 21.1565 92.5217 20.3441 92.7668 19.4644" stroke="black" stroke-width="0.2" stroke-miterlimit="10"/>
<path opacity="0.2" d="M86.4409 13.8772C86.4409 13.8772 88.0177 14.0028 88.7062 15.4537" stroke="black" stroke-width="0.2" stroke-miterlimit="10"/>
<path opacity="0.2" d="M83.0253 17.8995C83.0253 17.8995 83.6615 19.7267 85.0371 20.2376" stroke="black" stroke-width="0.2" stroke-miterlimit="10"/>
<path opacity="0.2" d="M83.7941 17.0302C83.7941 17.0302 85.7856 17.8033 86.0859 19.0529" stroke="black" stroke-width="0.2" stroke-miterlimit="10"/>
</g>
<defs>
<linearGradient id="paint0_linear" x1="10866.8" y1="-21693.1" x2="9453.92" y2="-22942.4" gradientUnits="userSpaceOnUse">
<stop stop-color="#808080" stop-opacity="0.25"/>
<stop offset="0.54" stop-color="#808080" stop-opacity="0.12"/>
<stop offset="1" stop-color="#808080" stop-opacity="0.1"/>
</linearGradient>
<linearGradient id="paint1_linear" x1="16343.4" y1="-36521.7" x2="11705.6" y2="-40622.5" gradientUnits="userSpaceOnUse">
<stop stop-color="#808080" stop-opacity="0.25"/>
<stop offset="0.54" stop-color="#808080" stop-opacity="0.12"/>
<stop offset="1" stop-color="#808080" stop-opacity="0.1"/>
</linearGradient>
</defs>
</svg>
